PathFileType	4	(X/Y/Z)	Patient4_TMGait_0pt5_02_right_10.trc.trc
DataRate	CameraRate	NumFrames	NumMarkers	Units	OrigDataRate	OrigDataStartFrame	OrigNumFrames
75.675675675676	75.675675675676	4	33	mm	75.675675675676	124	       141
Frame#	Time	Sacral			L.Shoulder			Chest			R.Shoulder			Neck			R.ASIS			L.ASIS			R.Thigh.Superior			R.Thigh.Lateral			R.Thigh.Inferior			R.Patella			L.Thigh.Superior			L.Thigh.Lateral			L.Thigh.Inferior			L.Patella			L.Shank.Superior			L.Shank.Lateral			L.Shank.Inferior			R.Shank.Superior			R.Shank.Lateral			R.Shank.Inferior			R.Heel			R.Midfoot.Superior			R.Midfoot.Lateral			R.Toe			L.Heel			L.Midfoot.Lateral			L.Midfoot.Superior			L.Toe			L.Elbow			L.Wrist			R.Elbow			R.Wrist			
		X1	Y1	Z1	X2	Y2	Z2	X3	Y3	Z3	X4	Y4	Z4	X5	Y5	Z5	X6	Y6	Z6	X7	Y7	Z7	X8	Y8	Z8	X9	Y9	Z9	X10	Y10	Z10	X11	Y11	Z11	X12	Y12	Z12	X13	Y13	Z13	X14	Y14	Z14	X15	Y15	Z15	X16	Y16	Z16	X17	Y17	Z17	X18	Y18	Z18	X19	Y19	Z19	X20	Y20	Z20	X21	Y21	Z21	X22	Y22	Z22	X23	Y23	Z23	X24	Y24	Z24	X25	Y25	Z25	X26	Y26	Z26	X27	Y27	Z27	X28	Y28	Z28	X29	Y29	Z29	X30	Y30	Z30	X31	Y31	Z31	X32	Y32	Z32	X33	Y33	Z33	

124	14.715357142857	589.972671967225	1001.470455564953	459.144435345813	790.919810709777	1430.206284482158	299.833824900621	872.114665328514	1358.046536370659	471.586798742367	768.442762889100	1432.417240833735	635.118257473902	773.075520580186	1489.171532915914	450.029918648392	805.437840930844	932.612961932737	595.845590538201	815.920351373280	956.162952217096	321.191827191539	874.672227519073	752.227990080181	568.899353196871	816.436854100122	634.340273717504	634.904803348204	904.362207976394	591.597490701338	557.383724885545	929.425563096322	508.704261463234	570.254104660465	823.017389983226	730.092962775078	350.538345767993	714.026485331515	632.777086394472	283.535776995749	770.858174307543	541.544357923658	353.029519580305	756.452887785946	472.935772277410	363.504252289359	723.554872420414	406.602838796484	353.534553109995	625.677553802428	302.453027386014	295.559148016165	654.520428897423	187.747507417023	372.708335527681	912.587654717920	419.802573403774	579.930026879795	857.331392554232	308.851014429981	644.770499921890	920.198400815805	220.323799256488	590.556514660224	815.528308628701	44.934466284754	566.160009859072	984.834262361381	103.899523587308	599.339829740667	901.212858917463	37.855371315019	637.969209520742	1106.883125401675	56.146108787052	622.006298977877	510.024319457030	38.394771907408	406.160133240409	588.671125989689	35.108484225432	330.320284179136	670.926560674765	94.918315883337	362.217091788786	800.283555065045	41.547771601860	341.397689546176	828.648516294259	1089.801307046636	156.181172642417	1073.636672012240	1009.225268740625	179.028165720431	609.642297125938	1126.682113305846	734.373828016940	579.715525775714	866.824326213623	743.883577878657	
125	14.728571428571	591.428127730192	1000.447117727421	462.308026909695	790.161107954810	1430.021668468235	303.358518618316	872.187084951571	1357.797850214431	474.711928118083	768.503793525043	1431.246943858436	638.715805663744	772.630732124728	1488.646523076258	453.745634133238	807.188774610767	931.739633422828	597.854756630760	817.084797048075	955.835504116902	323.512210149975	876.332221104278	750.586243601999	570.503610900162	816.299771192172	633.019799443850	635.593738593288	904.273941211806	590.392868047514	558.183806794020	928.034920164210	506.559926380572	570.384981502484	822.436057298413	728.923435519659	351.850095151680	711.911643446914	632.656043284573	285.364284408207	768.236303748074	540.746113570430	354.358724310618	753.560007490736	471.909476689403	364.638751844606	719.755965486089	406.031754410620	354.630362134851	620.564729056445	303.055011370627	296.556832245177	648.751575167237	187.703380226474	373.108353128422	910.179517649474	417.119417775477	580.004867408296	853.135480681376	306.895772486818	644.773470969655	913.940372886192	217.301377087335	589.913579166444	805.782042776564	43.767620241929	565.989955712788	975.639912535271	101.194111723128	598.388840249921	891.366208355732	36.789343411337	638.007736326600	1097.511969596499	52.385045724239	621.631411475994	503.335592794805	38.739820978371	406.146735391311	582.045980899134	35.220378663363	330.424234826952	664.444672012767	94.954456766134	362.258278541633	793.709391658650	41.295173964650	341.349118242356	825.683114397430	1089.118149765577	159.557360310361	1070.791949898973	1009.293105045379	182.849865239148	613.887783878134	1122.631347334244	737.215501664658	589.632827602276	861.859806097564	744.687254630712	
126	14.741785714286	592.700114318019	999.721248661491	465.463575750041	789.538301791649	1430.039024990479	306.987657814833	872.362259270937	1357.639186371426	477.919153938972	768.727334866922	1430.217323625488	642.417693638067	772.389717236065	1488.308071083754	457.588229816704	808.789342793851	931.153385981857	599.997499008375	818.107253396762	955.652050016242	325.950152034087	877.862781803566	749.358265553903	572.194833522406	816.278435371965	632.126467168093	636.376394441631	904.274149066529	589.658995249412	558.995440174168	926.773990076048	504.869561318612	570.563447619562	822.174807483796	728.010140728850	353.371313389193	710.459538431426	632.491919259773	287.425293486896	766.582526207459	540.013179635922	355.927284695577	751.756943355146	470.766276905312	365.930293945574	716.804726485208	405.362843910670	355.895797545788	616.056083909339	303.845539077694	297.720062079497	643.332493405193	187.741497308820	373.555705138005	908.047542993296	414.997265427040	580.174234018844	849.529038483525	305.431242520731	644.952205610180	908.352826708630	214.920786562858	589.366676541789	797.075029472756	42.937093780132	565.895111428908	967.293859256843	99.293151031250	597.559676566697	882.612585372071	36.152914990259	638.047866843688	1089.096561435389	49.759396256322	621.273364383694	496.693495360830	39.460866209832	406.116648417072	575.472449027743	35.491020126921	330.537239933119	658.127794043561	95.031685517521	362.271634691773	787.183269953055	40.961182782893	341.295765280364	822.431007479852	1088.562206117611	163.077315957715	1067.378768356290	1008.354286376016	186.579565066567	618.767583384153	1118.501965194599	740.255578259525	600.758202794049	856.911383327458	745.840081793557	
127	14.755000000000	593.733481251308	999.328173750507	468.596662571868	789.088630860216	1430.287298991563	310.679670065782	872.624594584480	1357.582187041804	481.183952154621	769.115023466330	1429.388667318479	646.185873360329	772.358240866309	1488.182764279355	461.510266593925	810.182001237365	930.878227181597	602.302327362948	818.902044154154	955.642935975107	328.491718322099	879.211138106228	748.604927767056	573.966176907618	816.385458037304	631.664933820040	637.280689355614	904.339021729063	589.366916798751	559.848617034409	925.614969883138	503.623766085851	570.859860074004	822.264198473486	727.423393186549	355.128286960091	709.808384997507	632.275610318229	289.703096942324	766.108561088575	539.363250679947	357.702314459487	751.270369059958	469.502684012272	367.313846269339	714.891071291285	404.592604522318	357.286985342821	612.308630256205	304.873896562083	299.028935207458	638.369654862106	187.907768607590	374.021760272667	906.138581230822	413.427220986734	580.474243488329	846.431396566957	304.452079830478	645.327146286803	903.365123182809	213.171643458219	588.962059912275	789.346180028178	42.433623965757	565.864481185471	959.776510252308	98.116970552755	596.909690698686	874.874106719175	35.872072570961	638.091541384393	1081.576648311186	48.117923155695	620.978904129538	490.143310566572	40.718432869207	406.066781187023	568.975955315316	36.006448073046	330.652721954501	652.041478637598	95.172209809720	362.235929415429	780.706096427781	40.545847750297	341.239232235406	818.900705569048	1088.183523116914	166.738613386351	1063.382902944837	1006.424424598281	190.230708950321	624.216094046236	1114.419556885953	743.458558131351	613.058068890240	852.164679010661	747.368881183069	
